<svg width="26" height="25" viewBox="0 0 26 25" fill="none" xmlns="http://www.w3.org/2000/svg">
<rect x="0.5" width="25" height="25" rx="12.5" fill="#E91919"/>
<path d="M13.3195 12.406C12.8775 12.406 12.5438 12.263 12.3185 11.977C12.3358 12.159 12.3488 12.354 12.3575 12.562C12.3661 12.7613 12.3705 12.9693 12.3705 13.186V16.293H11.3045V13.134C11.3045 12.614 11.2871 12.1633 11.2525 11.782C11.2265 11.4007 11.1875 11.0497 11.1355 10.729C11.0835 10.4083 11.0185 10.1093 10.9405 9.832C10.8711 9.55467 10.7931 9.26 10.7065 8.948L11.7205 8.571C11.8245 8.935 11.9068 9.247 11.9675 9.507C12.0281 9.75833 12.1018 10.027 12.1885 10.313C12.2665 10.5903 12.3791 10.82 12.5265 11.002C12.6738 11.1753 12.8991 11.262 13.2025 11.262C13.4625 11.262 13.6791 11.1883 13.8525 11.041C14.0345 10.8937 14.1255 10.6943 14.1255 10.443C14.1255 10.079 14.0518 9.52867 13.9045 8.792L14.9315 8.571C15.0008 8.89167 15.0528 9.21667 15.0875 9.546C15.1308 9.86667 15.1525 10.1657 15.1525 10.443C15.1525 11.0323 14.9835 11.509 14.6455 11.873C14.3075 12.2283 13.8655 12.406 13.3195 12.406Z" fill="white"/>
</svg>
