<svg width="20" height="20" viewBox="0 0 20 20" fill="none" xmlns="http://www.w3.org/2000/svg">
<rect width="20" height="20" rx="10" fill="#FF8A00"/>
<path d="M6.60006 11.31C6.60006 11.0113 6.6374 10.6987 6.71206 10.372C6.78673 10.036 6.92673 9.66733 7.13206 9.266C7.34673 8.86467 7.63606 8.41667 8.00006 7.922C8.36406 7.42733 8.8354 6.858 9.41406 6.214L8.79806 5.682L9.49806 4.842C10.4034 5.58867 11.1361 6.26533 11.6961 6.872C12.2654 7.46933 12.7041 8.01533 13.0121 8.51C13.3294 9.00467 13.5394 9.462 13.6421 9.882C13.7541 10.2927 13.8101 10.6893 13.8101 11.072C13.8101 11.4733 13.7447 11.8233 13.6141 12.122C13.4927 12.4113 13.3341 12.654 13.1381 12.85C12.9421 13.046 12.7181 13.1907 12.4661 13.284C12.2141 13.3773 11.9621 13.424 11.7101 13.424C11.3554 13.424 11.0521 13.3633 10.8001 13.242C10.5481 13.1207 10.3381 12.9527 10.1701 12.738C9.97406 12.9713 9.73606 13.144 9.45606 13.256C9.17606 13.368 8.90073 13.424 8.63006 13.424C8.00473 13.424 7.51006 13.2327 7.14606 12.85C6.78206 12.4767 6.60006 11.9633 6.60006 11.31ZM12.7181 11.058C12.7181 10.8247 12.6854 10.5727 12.6201 10.302C12.5547 10.022 12.4287 9.714 12.2421 9.378C12.0554 9.042 11.7941 8.67333 11.4581 8.272C11.1314 7.86133 10.6974 7.418 10.1561 6.942C9.2974 7.82867 8.67206 8.61267 8.28006 9.294C7.8974 9.966 7.70606 10.554 7.70606 11.058C7.70606 11.4127 7.79473 11.6927 7.97206 11.898C8.15873 12.094 8.4154 12.192 8.74206 12.192C8.87273 12.192 8.99873 12.1733 9.12006 12.136C9.25073 12.0987 9.3674 12.038 9.47006 11.954C9.57273 11.87 9.65206 11.758 9.70806 11.618C9.7734 11.478 9.80606 11.3053 9.80606 11.1V10.204H10.8281V10.988C10.8281 11.156 10.8141 11.3053 10.7861 11.436C10.7674 11.5667 10.7394 11.6833 10.7021 11.786C10.9447 12.0567 11.2621 12.192 11.6541 12.192C11.9527 12.192 12.2047 12.094 12.4101 11.898C12.6154 11.702 12.7181 11.422 12.7181 11.058Z" fill="#F5F6FA"/>
</svg>
