<svg width="26" height="25" viewBox="0 0 26 25" fill="none" xmlns="http://www.w3.org/2000/svg">
<rect x="0.5" width="25" height="25" rx="12.5" fill="#49C264"/>
<path d="M8.76198 16.293V13.134C8.76198 12.614 8.74465 12.1633 8.70998 11.782C8.68398 11.4007 8.64498 11.0497 8.59298 10.729C8.54098 10.4083 8.47598 10.1093 8.39798 9.832C8.32865 9.55467 8.25065 9.26 8.16398 8.948L9.17798 8.571C9.29065 8.91767 9.38598 9.25133 9.46398 9.572C9.55065 9.884 9.61998 10.2133 9.67198 10.56C9.72398 10.9067 9.76298 11.2837 9.78898 11.691C9.81498 12.0897 9.82798 12.549 9.82798 13.069V16.293H8.76198ZM11.1643 14.395C11.1643 14.1177 11.199 13.8273 11.2683 13.524C11.3377 13.212 11.4677 12.8697 11.6583 12.497C11.8577 12.1243 12.1263 11.7083 12.4643 11.249C12.8023 10.7897 13.24 10.261 13.7773 9.663L13.2053 9.169L13.8553 8.389C14.696 9.08233 15.3763 9.71067 15.8963 10.274C16.425 10.8287 16.8323 11.3357 17.1183 11.795C17.413 12.2543 17.608 12.679 17.7033 13.069C17.8073 13.4503 17.8593 13.8187 17.8593 14.174C17.8593 14.5467 17.7987 14.8717 17.6773 15.149C17.5647 15.4177 17.4173 15.643 17.2353 15.825C17.0533 16.007 16.8453 16.1413 16.6113 16.228C16.3773 16.3147 16.1433 16.358 15.9093 16.358C15.58 16.358 15.2983 16.3017 15.0643 16.189C14.8303 16.0763 14.6353 15.9203 14.4793 15.721C14.2973 15.9377 14.0763 16.098 13.8163 16.202C13.5563 16.306 13.3007 16.358 13.0493 16.358C12.4687 16.358 12.0093 16.1803 11.6713 15.825C11.3333 15.4783 11.1643 15.0017 11.1643 14.395ZM16.8453 14.161C16.8453 13.9443 16.815 13.7103 16.7543 13.459C16.6937 13.199 16.5767 12.913 16.4033 12.601C16.23 12.289 15.9873 11.9467 15.6753 11.574C15.372 11.1927 14.969 10.781 14.4663 10.339C13.669 11.1623 13.0883 11.8903 12.7243 12.523C12.369 13.147 12.1913 13.693 12.1913 14.161C12.1913 14.4903 12.2737 14.7503 12.4383 14.941C12.6117 15.123 12.85 15.214 13.1533 15.214C13.2747 15.214 13.3917 15.1967 13.5043 15.162C13.6257 15.1273 13.734 15.071 13.8293 14.993C13.9247 14.915 13.9983 14.811 14.0503 14.681C14.111 14.551 14.1413 14.3907 14.1413 14.2V13.368H15.0903V14.096C15.0903 14.252 15.0773 14.3907 15.0513 14.512C15.034 14.6333 15.008 14.7417 14.9733 14.837C15.1987 15.0883 15.4933 15.214 15.8573 15.214C16.1347 15.214 16.3687 15.123 16.5593 14.941C16.75 14.759 16.8453 14.499 16.8453 14.161Z" fill="white"/>
</svg>
