<svg width="25" height="25" viewBox="0 0 25 25" fill="none" xmlns="http://www.w3.org/2000/svg">
<rect width="25" height="25" rx="12.5" fill="#AAB7C6"/>
<path d="M10.0739 12.406C9.63186 12.406 9.29819 12.263 9.07286 11.977C9.09019 12.159 9.10319 12.354 9.11186 12.562C9.12053 12.7613 9.12486 12.9693 9.12486 13.186V16.293H8.05886V13.134C8.05886 12.614 8.04153 12.1633 8.00686 11.782C7.98086 11.4007 7.94186 11.0497 7.88986 10.729C7.83786 10.4083 7.77286 10.1093 7.69486 9.832C7.62553 9.55467 7.54753 9.26 7.46086 8.948L8.47486 8.571C8.57886 8.935 8.66119 9.247 8.72186 9.507C8.78253 9.75833 8.85619 10.027 8.94286 10.313C9.02086 10.5903 9.13353 10.82 9.28086 11.002C9.42819 11.1753 9.65353 11.262 9.95686 11.262C10.2169 11.262 10.4335 11.1883 10.6069 11.041C10.7889 10.8937 10.8799 10.6943 10.8799 10.443C10.8799 10.079 10.8062 9.52867 10.6589 8.792L11.6859 8.571C11.7552 8.89167 11.8072 9.21667 11.8419 9.546C11.8852 9.86667 11.9069 10.1657 11.9069 10.443C11.9069 11.0323 11.7379 11.509 11.3999 11.873C11.0619 12.2283 10.6199 12.406 10.0739 12.406ZM15.5709 12.406C15.1289 12.406 14.7953 12.263 14.5699 11.977C14.5873 12.159 14.6003 12.354 14.6089 12.562C14.6176 12.7613 14.6219 12.9693 14.6219 13.186V16.293H13.5559V13.134C13.5559 12.614 13.5386 12.1633 13.5039 11.782C13.4779 11.4007 13.4389 11.0497 13.3869 10.729C13.3349 10.4083 13.2699 10.1093 13.1919 9.832C13.1226 9.55467 13.0446 9.26 12.9579 8.948L13.9719 8.571C14.0759 8.935 14.1583 9.247 14.2189 9.507C14.2796 9.75833 14.3533 10.027 14.4399 10.313C14.5179 10.5903 14.6306 10.82 14.7779 11.002C14.9253 11.1753 15.1506 11.262 15.4539 11.262C15.7139 11.262 15.9306 11.1883 16.1039 11.041C16.2859 10.8937 16.3769 10.6943 16.3769 10.443C16.3769 10.079 16.3033 9.52867 16.1559 8.792L17.1829 8.571C17.2523 8.89167 17.3043 9.21667 17.3389 9.546C17.3823 9.86667 17.4039 10.1657 17.4039 10.443C17.4039 11.0323 17.2349 11.509 16.8969 11.873C16.5589 12.2283 16.1169 12.406 15.5709 12.406Z" fill="white"/>
</svg>
