<svg width="25" height="25" viewBox="0 0 25 25" fill="none" xmlns="http://www.w3.org/2000/svg">
<rect width="25" height="25" rx="12.5" fill="#FF8A00"/>
<path d="M12.4976 14.239C12.5843 13.7363 12.6883 13.251 12.8096 12.783C12.9309 12.3063 13.0783 11.834 13.2516 11.366C13.4249 10.898 13.6286 10.4257 13.8626 9.949C14.1053 9.46367 14.3913 8.95667 14.7206 8.428L15.6046 9C15.2839 9.52867 14.9893 10.053 14.7206 10.573C14.4519 11.0843 14.2049 11.626 13.9796 12.198C13.7629 12.77 13.5636 13.3897 13.3816 14.057C13.1996 14.7243 13.0306 15.4697 12.8746 16.293H12.1206C11.9646 15.4697 11.7956 14.7243 11.6136 14.057C11.4316 13.3897 11.2279 12.77 11.0026 12.198C10.7859 11.626 10.5433 11.0843 10.2746 10.573C10.0059 10.053 9.71128 9.52867 9.39061 9L10.2616 8.428C10.5909 8.95667 10.8769 9.46367 11.1196 9.949C11.3623 10.4257 11.5703 10.898 11.7436 11.366C11.9169 11.834 12.0599 12.3063 12.1726 12.783C12.2939 13.251 12.4023 13.7363 12.4976 14.239Z" fill="white"/>
</svg>
